<?xml version="1.0" standalone="no"?>
<!DOCTYPE svg PUBLIC "-//W3C//DTD SVG 20010904//EN"
 "http://www.w3.org/TR/2001/REC-SVG-20010904/DTD/svg10.dtd">
<svg version="1.0" xmlns="http://www.w3.org/2000/svg"
 width="512.000000pt" height="512.000000pt" viewBox="0 0 512.000000 512.000000"
 preserveAspectRatio="xMidYMid meet">

<g transform="translate(0.000000,512.000000) scale(0.100000,-0.100000)"
fill="#000000" stroke="none">
<path d="M2480 5114 c-193 -29 -331 -102 -486 -258 -244 -246 -435 -677 -543
-1226 -60 -306 -90 -633 -104 -1147 l-2 -81 -127 116 c-243 225 -400 419 -498
617 -73 147 -94 224 -88 322 11 173 122 276 343 319 50 10 92 19 94 20 2 2 18
63 36 136 19 73 43 163 54 200 l19 67 -66 -5 c-106 -8 -260 -34 -332 -56 -206
-64 -379 -199 -468 -367 -102 -190 -102 -446 -2 -699 165 -415 602 -881 1210
-1290 146 -98 367 -233 467 -285 35 -17 63 -35 63 -39 0 -16 -305 -95 -495
-129 -171 -31 -479 -34 -591 -7 -150 37 -250 99 -299 189 -28 51 -30 61 -29
159 0 89 4 115 27 174 l27 68 -149 149 -148 148 -43 -91 c-86 -185 -113 -295
-113 -458 1 -237 88 -420 265 -555 206 -156 494 -222 858 -195 517 37 1119
234 1733 566 88 47 161 83 164 81 8 -8 -74 -327 -112 -437 -125 -357 -289
-602 -463 -687 -48 -24 -69 -28 -137 -28 -70 0 -87 4 -135 30 -31 17 -94 69
-143 118 l-88 89 -162 -41 c-89 -22 -179 -43 -199 -47 l-38 -6 25 -42 c76
-128 210 -280 311 -352 82 -59 184 -108 269 -129 92 -24 248 -24 335 -1 516
139 889 866 1000 1951 13 127 30 487 30 628 l0 108 28 -20 c52 -37 232 -208
318 -302 186 -201 338 -445 380 -609 35 -140 -1 -282 -90 -355 -69 -56 -227
-115 -312 -115 -16 0 -34 -4 -41 -8 -7 -4 -22 -48 -33 -97 -11 -50 -35 -136
-51 -193 -17 -57 -29 -105 -27 -107 2 -2 56 0 120 5 285 23 490 105 642 255
258 255 270 636 34 1050 -262 460 -782 926 -1488 1332 -80 46 -149 88 -153 92
-16 16 275 94 488 132 160 28 468 33 575 10 156 -35 264 -100 315 -192 28 -50
30 -61 30 -154 -1 -83 -5 -112 -28 -174 l-27 -74 149 -148 148 -148 43 91 c85
184 113 295 113 458 0 89 -5 133 -22 195 -81 290 -323 480 -691 542 -121 20
-367 22 -530 4 -69 -8 -127 -14 -129 -13 -2 0 -23 47 -46 104 -200 495 -481
783 -816 838 -63 10 -119 11 -169 4z m174 -415 c110 -42 220 -154 323 -328 55
-92 133 -260 133 -285 0 -8 -49 -28 -122 -50 -321 -99 -762 -294 -1081 -478
-38 -22 -70 -38 -72 -36 -2 2 10 62 26 133 92 412 232 727 402 912 128 137
260 182 391 132z m84 -1338 c177 -89 340 -180 504 -282 77 -47 89 -58 95 -89
10 -47 10 -790 0 -860 l-8 -55 -87 -54 c-161 -100 -326 -193 -505 -282 l-177
-89 -172 86 c-302 151 -603 332 -621 373 -17 40 -16 873 1 894 13 15 160 109
302 192 53 32 479 254 488 255 1 0 82 -40 180 -89z"/>
<path d="M2476 2950 c-203 -36 -350 -244 -316 -452 51 -317 442 -444 669 -217
144 144 155 364 26 534 -31 40 -117 100 -172 119 -53 19 -149 26 -207 16z"/>
</g>
</svg>
